<?xml version="1.0" encoding="iso-8859-1"?>
<!-- Generator: Adobe Illustrator 19.0.0, SVG Export Plug-In . SVG Version: 6.00 Build 0)  -->
<svg version="1.1" id="Capa_1" xmlns="http://www.w3.org/2000/svg" xmlns:xlink="http://www.w3.org/1999/xlink" x="0px" y="0px"
	 viewBox="0 0 512 512" style="enable-background:new 0 0 512 512;" xml:space="preserve">
<circle style="fill:#B4E66E;" cx="262.45" cy="65.73" r="44.23"/>
<path style="fill:#A0D755;" d="M252.082,22.738c3.324-0.815,6.798-1.233,10.369-1.233c24.426,0,44.22,19.794,44.22,44.22
	c0,24.437-19.794,44.231-44.22,44.231c-3.571,0-7.045-0.429-10.369-1.233c19.429-4.653,33.862-22.131,33.862-42.997
	C285.944,44.87,271.511,27.392,252.082,22.738z"/>
<circle style="fill:#B4E66E;" cx="123.58" cy="254.69" r="44.23"/>
<path style="fill:#A0D755;" d="M113.21,211.695c3.324-0.815,6.798-1.233,10.369-1.233c24.426,0,44.22,19.794,44.22,44.22
	c0,24.437-19.794,44.231-44.22,44.231c-3.571,0-7.045-0.429-10.369-1.233c19.429-4.653,33.862-22.131,33.862-42.998
	C147.072,233.827,132.64,216.35,113.21,211.695z"/>
<circle style="fill:#B4E66E;" cx="395.93" cy="254.69" r="44.23"/>
<path style="fill:#A0D755;" d="M385.565,211.695c3.324-0.815,6.798-1.233,10.369-1.233c24.426,0,44.22,19.794,44.22,44.22
	c0,24.437-19.794,44.231-44.22,44.231c-3.571,0-7.045-0.429-10.369-1.233c19.429-4.653,33.862-22.131,33.862-42.998
	C419.427,233.827,404.994,216.35,385.565,211.695z"/>
<circle style="fill:#B4E66E;" cx="44.23" cy="446.27" r="44.23"/>
<path style="fill:#A0D755;" d="M33.863,403.277c3.324-0.815,6.798-1.233,10.369-1.233c24.426,0,44.22,19.794,44.22,44.22
	c0,24.437-19.794,44.231-44.22,44.231c-3.571,0-7.045-0.429-10.369-1.233c19.429-4.653,33.862-22.131,33.862-42.997
	C67.725,425.409,53.293,407.931,33.863,403.277z"/>
<circle style="fill:#B4E66E;" cx="187.91" cy="446.27" r="44.23"/>
<path style="fill:#A0D755;" d="M177.546,403.277c3.324-0.815,6.798-1.233,10.369-1.233c24.426,0,44.22,19.794,44.22,44.22
	c0,24.437-19.794,44.231-44.22,44.231c-3.571,0-7.045-0.429-10.369-1.233c19.429-4.653,33.862-22.131,33.862-42.997
	C211.408,425.409,196.975,407.931,177.546,403.277z"/>
<circle style="fill:#B4E66E;" cx="324.09" cy="446.27" r="44.23"/>
<path style="fill:#A0D755;" d="M313.723,403.277c3.324-0.815,6.798-1.233,10.369-1.233c24.426,0,44.22,19.794,44.22,44.22
	c0,24.437-19.794,44.231-44.22,44.231c-3.571,0-7.045-0.429-10.369-1.233c19.429-4.653,33.862-22.131,33.862-42.997
	C347.585,425.409,333.153,407.931,313.723,403.277z"/>
<circle style="fill:#B4E66E;" cx="467.77" cy="446.27" r="44.23"/>
<path style="fill:#A0D755;" d="M457.406,403.277c3.324-0.815,6.798-1.233,10.369-1.233c24.426,0,44.22,19.794,44.22,44.22
	c0,24.437-19.794,44.231-44.22,44.231c-3.571,0-7.045-0.429-10.369-1.233c19.429-4.653,33.862-22.131,33.862-42.997
	C491.268,425.409,476.835,407.931,457.406,403.277z"/>
<g>
	<path style="fill:#D1D0BF;" d="M370.333,190.526c1.293,2.853,4.103,4.54,7.043,4.54c1.065,0,2.149-0.222,3.183-0.69
		c3.887-1.762,5.611-6.34,3.849-10.226l-12.867-28.4c-1.252-2.764-4.004-4.538-7.037-4.538h-96.283v-17.556
		c0-4.268-3.459-7.726-7.726-7.726s-7.726,3.459-7.726,7.726v17.556h-96.284c-3.033,0-5.786,1.775-7.038,4.538l-12.866,28.4
		c-1.761,3.886-0.037,8.465,3.85,10.226c3.887,1.759,8.465,0.036,10.226-3.85l10.81-23.862h198.055L370.333,190.526z"/>
	<path style="fill:#D1D0BF;" d="M163.523,347.331c-1.253-2.764-4.005-4.538-7.038-4.538h-31.947v-17.556
		c0-4.268-3.459-7.726-7.726-7.726c-4.268,0-7.726,3.459-7.726,7.726v17.556H77.138c-3.033,0-5.786,1.775-7.038,4.538l-12.867,28.4
		c-1.761,3.886-0.037,8.465,3.85,10.226c3.886,1.758,8.465,0.037,10.226-3.85l10.811-23.862h69.383l10.811,23.862
		c1.293,2.853,4.103,4.54,7.043,4.54c1.065,0,2.149-0.222,3.183-0.69c3.887-1.762,5.611-6.34,3.85-10.226L163.523,347.331z"/>
	<path style="fill:#D1D0BF;" d="M456.25,375.73l-12.867-28.4c-1.253-2.764-4.005-4.538-7.038-4.538h-31.947v-17.556
		c0-4.268-3.459-7.726-7.726-7.726s-7.726,3.459-7.726,7.726v17.556h-31.948c-3.033,0-5.786,1.775-7.038,4.538l-12.867,28.4
		c-1.761,3.886-0.037,8.465,3.85,10.226c3.885,1.758,8.464,0.037,10.226-3.85l10.811-23.862h69.383l10.811,23.862
		c1.293,2.853,4.103,4.54,7.043,4.54c1.065,0,2.149-0.222,3.183-0.69C456.288,384.196,458.011,379.617,456.25,375.73z"/>
</g>
<g>
</g>
<g>
</g>
<g>
</g>
<g>
</g>
<g>
</g>
<g>
</g>
<g>
</g>
<g>
</g>
<g>
</g>
<g>
</g>
<g>
</g>
<g>
</g>
<g>
</g>
<g>
</g>
<g>
</g>
</svg>
